<svg xmlns="http://www.w3.org/2000/svg" viewBox="0 0 158.2 100.49"><defs><style>.cls-1{fill:#3d3d3d;}</style></defs><title>justThePotAsset 4</title><g id="Layer_2" data-name="Layer 2"><g id="Layer_1-2" data-name="Layer 1"><path class="cls-1" d="M155.2,41.28a28.48,28.48,0,0,0-16.32,5.1v-12H19.32v12A28.48,28.48,0,0,0,3,41.28a3,3,0,1,0,0,6,22.58,22.58,0,0,1,16.32,6.95V77.35a23.17,23.17,0,0,0,23.14,23.14h73.28a23.17,23.17,0,0,0,23.14-23.14V54.23a22.55,22.55,0,0,1,16.32-7,3,3,0,1,0,0-6ZM131.68,77.35a16,16,0,0,1-15.94,15.94H42.46A16,16,0,0,1,26.52,77.35V41.62H131.68ZM117.74,8.13H81.54A5.67,5.67,0,0,1,87,4.06a6.4,6.4,0,0,1,.88.07A4.13,4.13,0,0,0,83.72,0H74.48a4.13,4.13,0,0,0-4.13,4.13,6.4,6.4,0,0,1,.88-.07,5.67,5.67,0,0,1,5.43,4.07H40.46A20.56,20.56,0,0,0,19.92,28.67v3H138.28v-3A20.56,20.56,0,0,0,117.74,8.13ZM26.23,25.67A14.56,14.56,0,0,1,40.46,14.13h77.28A14.56,14.56,0,0,1,132,25.67Z"/></g></g></svg>