<svg xmlns="http://www.w3.org/2000/svg" width="793.289" height="595.641" viewBox="0 0 793.289 595.641">
  <g id="Group_24" data-name="Group 24" transform="translate(-330.349 -129.332)">
    <g id="Group_21" data-name="Group 21" transform="translate(457.811 129.332)">
      <g id="Group_20" data-name="Group 20">
        <path id="Path_71" data-name="Path 71" d="M721.151,200.633v5.593a3.488,3.488,0,0,1-3.481,3.482H665.917l.65-6.85.537-5.706H717.67A3.486,3.486,0,0,1,721.151,200.633Z" transform="translate(-172.115 -71.591)" fill="#416871"/>
        <path id="Path_72" data-name="Path 72" d="M694.064,203.934l-17.818,42.552a8.934,8.934,0,0,1-12.715,4.428l4.417-46.981Zm-14.256,9.131a3.424,3.424,0,1,0-3.425,3.425A3.427,3.427,0,0,0,679.808,213.065Zm-4.566,17.122a3.424,3.424,0,1,0-3.425,3.425A3.429,3.429,0,0,0,675.243,230.187Z" transform="translate(-174.147 -65.817)" fill="#929c9e"/>
        <path id="Path_73" data-name="Path 73" d="M898.859,178.438v5.593a3.488,3.488,0,0,1-3.482,3.481H421.79a3.486,3.486,0,0,1-3.481-3.481v-5.593a3.488,3.488,0,0,1,3.481-3.482H895.376A3.489,3.489,0,0,1,898.859,178.438Z" transform="translate(-382.924 -90.489)" fill="#416871"/>
        <path id="Path_74" data-name="Path 74" d="M863.865,181.738c.057.161.115.309.17.468l-1.494,15.968-.011.013L861.4,210.275l-.537,5.706-.65,6.85-4.417,46.981-9.8,104.214a42.225,42.225,0,0,1-42.05,38.285H471.9c-.446,0-.891-.011-1.326-.022-.354-.011-.707-.024-1.05-.046l-.592-.033c-.035,0-.057-.013-.093-.013-.672-.044-1.346-.113-2.009-.193-.365-.046-.729-.093-1.085-.15-.261-.044-.513-.08-.765-.124-1.026-.172-2.042-.389-3.047-.641-.318-.08-.639-.159-.946-.25a39.6,39.6,0,0,1-5.376-1.9c-.389-.159-.765-.33-1.142-.513s-.753-.354-1.129-.548-.742-.389-1.107-.583c-.652-.354-1.279-.718-1.907-1.107-1.14-.707-2.249-1.461-3.321-2.283-.32-.25-.652-.5-.97-.765s-.639-.524-.948-.8c-.307-.252-.592-.515-.891-.778a.087.087,0,0,0-.044-.044c-.3-.285-.605-.559-.9-.857s-.583-.581-.879-.878c-.857-.879-1.666-1.8-2.444-2.762-.3-.367-.581-.742-.878-1.12-.457-.628-.915-1.266-1.348-1.916a40.822,40.822,0,0,0,22.783,6.906H792.524a42.23,42.23,0,0,0,42.052-38.285l9.8-104.214,4.417-46.982.65-6.848.537-5.708,1.129-12.088.011-.011.468-5.023Z" transform="translate(-366.41 -84.715)" fill="#568a96"/>
        <path id="Path_75" data-name="Path 75" d="M857.383,194.378H433.654c29.439-24.529,113.164-42.234,211.865-42.234S827.946,169.849,857.383,194.378ZM691.747,184.1c26.255-2.283,3.425-11.414,3.425-11.414-54.79-21.687-160.944-14.839-191.764,0s3.425,14.839,3.425,14.839S665.495,186.387,691.747,184.1Z" transform="translate(-369.859 -109.91)" fill="#6cadbc"/>
        <path id="Path_76" data-name="Path 76" d="M858.659,181.738l-.468,5.023-.011.011L857.05,198.86l-.537,5.708-.65,6.848L851.446,258.4l-9.8,104.214A42.23,42.23,0,0,1,799.589,400.9H467.553a40.822,40.822,0,0,1-22.783-6.906c-.455-.685-.891-1.381-1.313-2.1-.046-.08-.091-.159-.137-.25-.217-.378-.433-.766-.639-1.153s-.4-.765-.594-1.153c-.022-.057-.057-.113-.08-.17-.183-.378-.365-.754-.537-1.142-.181-.411-.365-.833-.535-1.266s-.343-.844-.492-1.268c-.17-.433-.318-.878-.467-1.324q-.361-1.061-.652-2.157a39.9,39.9,0,0,1-1.176-6.21c-.057-.433-.091-.868-.126-1.29-.044-.479-.069-.97-.091-1.45l-4.508-101.269-2.192-48.956-.3-6.85-.263-5.706-.422-9.646-.844-18.891ZM712.485,364.369c10.273-25.11,33.1-140.4,6.848-174.641H453.377s-19.4-9.131,5.708,182.631c0,0,1.141,15.981,22.828,15.981H673.676S702.212,389.481,712.485,364.369Z" transform="translate(-373.475 -84.715)" fill="#6cadbc"/>
        <path id="Path_77" data-name="Path 77" d="M711.6,186.086c26.254,34.243,3.425,149.53-6.848,174.641S665.943,384.7,665.943,384.7H474.179c-21.687,0-22.828-15.981-22.828-15.981-25.112-191.762-5.708-182.631-5.708-182.631ZM542.667,297.948V248.866c-26.254-3.425-27.395,18.262-27.395,18.262v30.82Zm-14.839-73.054c2.283-17.122-4.567-18.262-66.205-18.262,0,0-5.706,47.94,5.708,100.447,0,0,5.708,17.122,21.687,14.839s29.678,4.565,21.689-22.829-6.85-37.666,2.283-50.222S525.545,242.016,527.828,224.894Z" transform="translate(-365.741 -81.072)" fill="#89bdc9"/>
        <path id="Path_78" data-name="Path 78" d="M560.549,160.44c.765.013,1.165.024,1.165.024A3.361,3.361,0,0,0,560.549,160.44Zm-.011,0c-6.746-.091-41.264-.068-73.018,9.155,0,0-19.4,9.131,5.708,9.131s54.79-4.566,54.79-4.566S554.967,161.251,560.538,160.44ZM669.01,169.6s22.829,9.131-3.425,11.414-184.914,3.425-184.914,3.425-34.243,0-3.425-14.839S614.22,147.908,669.01,169.6Zm-98.166,4.565,4.567-13.7s-11.416-3.425-19.406,13.7Z" transform="translate(-343.697 -106.815)" fill="#89bdc9"/>
        <path id="Path_79" data-name="Path 79" d="M593.915,133.464v2.009a4.131,4.131,0,0,1-4.132,4.132H535.267a4.132,4.132,0,0,1-4.132-4.132v-2.009a4.132,4.132,0,0,1,4.132-4.132h54.516A4.131,4.131,0,0,1,593.915,133.464Z" transform="translate(-286.866 -129.332)" fill="#416871"/>
        <path id="Path_80" data-name="Path 80" d="M534.539,134.881h50.943c-12.841,7.648-14.382,18.5-14.233,23.972H548.967C548.841,146.2,539.927,138.432,534.539,134.881Z" transform="translate(-283.968 -124.608)" fill="#929c9e"/>
        <path id="Path_81" data-name="Path 81" d="M583.917,150.591v2.464a2.758,2.758,0,0,1-2.762,2.762H537.6a2.757,2.757,0,0,1-2.762-2.762v-2.464a2.756,2.756,0,0,1,2.762-2.762h43.557A2.756,2.756,0,0,1,583.917,150.591Z" transform="translate(-283.716 -113.584)" fill="#416871"/>
        <path id="Path_82" data-name="Path 82" d="M533.278,158.439l-4.567,13.7H513.872C521.863,155.014,533.278,158.439,533.278,158.439Z" transform="translate(-301.563 -104.789)" fill="#a7ced7"/>
        <path id="Path_83" data-name="Path 83" d="M480.169,167.459c31.755-9.224,66.272-9.246,73.018-9.155-5.571.811-12.521,13.721-12.521,13.721s-29.678,4.566-54.79,4.566S480.169,167.459,480.169,167.459Z" transform="translate(-336.347 -104.679)" fill="#a7ced7"/>
        <path id="Path_84" data-name="Path 84" d="M507.358,220.133v49.082H479.963v-30.82S481.1,216.708,507.358,220.133Z" transform="translate(-330.433 -52.338)" fill="#a7ced7"/>
        <path id="Path_85" data-name="Path 85" d="M451.641,197.152c61.638,0,68.488,1.14,66.205,18.262s-5.708,11.416-14.839,23.972-10.273,22.827-2.283,50.222-5.708,20.547-21.689,22.829S457.349,297.6,457.349,297.6C445.935,245.092,451.641,197.152,451.641,197.152Z" transform="translate(-355.76 -71.591)" fill="#a7ced7"/>
        <path id="Path_86" data-name="Path 86" d="M442.513,203.934l2.192,48.956a8.561,8.561,0,0,1-10.2-5.149l-18.343-43.807Zm-1.826,26.253a3.425,3.425,0,1,0-3.425,3.425A3.429,3.429,0,0,0,440.688,230.187Zm-4.567-17.122a3.424,3.424,0,1,0-3.423,3.425A3.426,3.426,0,0,0,436.12,213.065Z" transform="translate(-384.756 -65.817)" fill="#929c9e"/>
        <path id="Path_87" data-name="Path 87" d="M456.657,202.858l.3,6.85H403.021a3.825,3.825,0,0,1-3.825-3.825v-5.239a3.492,3.492,0,0,1,3.494-3.492h53.7Z" transform="translate(-399.196 -71.591)" fill="#416871"/>
      </g>
    </g>
    <g id="Group_22" data-name="Group 22" transform="translate(330.349 503.727)">
      <text id="The" transform="translate(96 183.928) rotate(-90)" fill="#416871" font-size="98" font-family="CaviarDreams, Caviar Dreams"><tspan x="0" y="0">The</tspan></text>
      <text id="Family_Cookbook" data-name="Family Cookbook" transform="translate(126.289 160)" fill="#416871" font-size="160" font-family="cookies&milk-regular, 'cookies&milk'"><tspan x="0" y="0">Family Cookbook</tspan></text>
    </g>
    <g id="Group_23" data-name="Group 23" transform="translate(935.714 675.058)">
      <text id="est." transform="translate(0 41.915)" fill="#416871" font-size="42" font-family="CaviarDreams, Caviar Dreams"><tspan x="0" y="0">est.</tspan></text>
      <text id="_2020" data-name="2020" transform="translate(76.212 41)" fill="#416871" font-size="42" font-family="CaviarDreams, Caviar Dreams"><tspan x="0" y="0">2020</tspan></text>
    </g>
  </g>
</svg>
