<svg xmlns="http://www.w3.org/2000/svg" viewBox="0 0 183.26 221.58"><defs><style>.cls-1{fill:#f1e4f5;}</style></defs><title>theFamilyCookbookAsset 2</title><g id="Layer_2" data-name="Layer 2"><g id="Layer_1-2" data-name="Layer 1"><path class="cls-1" d="M8.46,48.17,3.65,54.36,0,51.52,13.11,34.66l3.64,2.84-4.81,6.19,15.7,12.2-3.48,4.48Z"/><path class="cls-1" d="M35.13,25.89q3,.28,5.58,3.51l6.76,8.4-4.26,3.42L37,33.48a4.88,4.88,0,0,0-2.86-2,3.58,3.58,0,0,0-2.9.91,4.37,4.37,0,0,0-1.76,3.06,5.28,5.28,0,0,0,1.43,3.73l5.83,7.25-4.25,3.43L16.18,29.63l4.26-3.42,5.71,7.09a7.05,7.05,0,0,1,1-2.94A9.5,9.5,0,0,1,29.4,27.8,7.79,7.79,0,0,1,35.13,25.89Z"/><path class="cls-1" d="M62.74,21.75,49.85,27.81a4.41,4.41,0,0,0,2.83,1.73,6,6,0,0,0,3.66-.6,7.13,7.13,0,0,0,2.17-1.5,6.35,6.35,0,0,0,1.33-2.16l4,1.62Q62.7,30.78,58.07,33a12.11,12.11,0,0,1-5.63,1.27,9,9,0,0,1-4.88-1.51,9.51,9.51,0,0,1-3.34-4,9.68,9.68,0,0,1-.93-5.07A9.17,9.17,0,0,1,45.08,19a11.13,11.13,0,0,1,9.14-4.36,8.66,8.66,0,0,1,4.64,1.59,10.12,10.12,0,0,1,3.35,4.13C62.24,20.44,62.42,20.9,62.74,21.75Zm-14.13,0A4.41,4.41,0,0,0,48.43,25L56.83,21a4.55,4.55,0,0,0-2.61-1.93,4.61,4.61,0,0,0-3.24.34A4.71,4.71,0,0,0,48.61,21.71Z"/><path class="cls-1" d="M79.34,5.93l.71,6.44,11.28-1.24.5,4.52L80.55,16.89l1,8.87-5.63.63L73.21,2,91.62,0l.49,4.52Z"/><path class="cls-1" d="M110.73,9.16c1.4,1.55,2,3.71,1.66,6.5l-1.15,10.68-5.08-.54.25-2.33c-1.21,1.63-3.2,2.29-6,2a8.82,8.82,0,0,1-3.66-1.13,5.59,5.59,0,0,1-2.2-2.28A5.19,5.19,0,0,1,94,19a4.86,4.86,0,0,1,2.4-3.89q2.13-1.29,6.24-.85l4.31.46a3.48,3.48,0,0,0-.78-2.85,4.82,4.82,0,0,0-3.14-1.3,9.41,9.41,0,0,0-3,.15,7.83,7.83,0,0,0-2.59,1L96,7.77A11.71,11.71,0,0,1,99.8,6.49a16.64,16.64,0,0,1,4.46-.12C107.17,6.68,109.32,7.61,110.73,9.16Zm-6,12.42a3.55,3.55,0,0,0,1.74-1.74l.2-1.91-3.72-.4q-3.34-.36-3.58,1.83a2,2,0,0,0,.64,1.75,3.79,3.79,0,0,0,2.18.85A4.86,4.86,0,0,0,104.71,21.58Z"/><path class="cls-1" d="M147,21.72c.73,1.83.54,4-.55,6.57l-4.26,9.9-5-2.15,3.93-9.14a5.13,5.13,0,0,0,.47-3.43,3.28,3.28,0,0,0-2-2.06,3.87,3.87,0,0,0-3.29-.06,5.32,5.32,0,0,0-2.48,2.95L130,33l-5-2.15,3.92-9.14c1.17-2.72.67-4.55-1.52-5.49a3.88,3.88,0,0,0-3.26-.05,5.35,5.35,0,0,0-2.48,3l-3.74,8.69-5-2.16,7.43-17.3,4.79,2.06-.85,2a7,7,0,0,1,3.08-.66,8.94,8.94,0,0,1,3.32.74,8.25,8.25,0,0,1,3,2.15,6.45,6.45,0,0,1,1.48,3.13,7.66,7.66,0,0,1,3.58-.94,9.41,9.41,0,0,1,3.87.79A7.59,7.59,0,0,1,147,21.72Z"/><path class="cls-1" d="M154.45,25.56l4.36,3.29-11.35,15-4.36-3.3Zm2.33-2.63a3,3,0,0,1,2.62-3.46,3.42,3.42,0,0,1,2.48.78,3.52,3.52,0,0,1,1.45,2.15,2.66,2.66,0,0,1-.51,2.24,2.94,2.94,0,0,1-2.12,1.23,3.41,3.41,0,0,1-2.49-.76A3.48,3.48,0,0,1,156.78,22.93Z"/><path class="cls-1" d="M168.13,27.38l4,3.74L154.33,50.05l-4-3.74Z"/><path class="cls-1" d="M183.08,55.39l-21,5.48a9.78,9.78,0,0,1-5.58.26,7.84,7.84,0,0,1-3.87-2.83,9.51,9.51,0,0,1-1.41-2.58,6.4,6.4,0,0,1-.44-2.63l4.3-.79a4.68,4.68,0,0,0,.19,1.69,4.59,4.59,0,0,0,.75,1.48,2.88,2.88,0,0,0,1.54,1.11,4.71,4.71,0,0,0,2.2-.11l.18,0,10-18,3.44,4.46-6.89,12,13.37-3.59Z"/><path class="cls-1" d="M10.27,181.19a12.21,12.21,0,0,1,.07-6.57,12.47,12.47,0,0,1,3.61-5.7,12.43,12.43,0,0,1,6-3.17,12.2,12.2,0,0,1,6.55.42,14.07,14.07,0,0,1,5.82,3.89,14.41,14.41,0,0,1,3.09,5A11.58,11.58,0,0,1,36,180.4L31,180a7.82,7.82,0,0,0-2.08-6.47,8.13,8.13,0,0,0-3.49-2.3,7.14,7.14,0,0,0-3.94-.15,8.18,8.18,0,0,0-3.65,2,8.08,8.08,0,0,0-2.3,3.49,7.1,7.1,0,0,0-.15,3.93,8.11,8.11,0,0,0,2,3.66,7.8,7.8,0,0,0,6.31,2.54v5a11.34,11.34,0,0,1-5.33-1,14.12,14.12,0,0,1-4.75-3.47A14,14,0,0,1,10.27,181.19Z"/><path class="cls-1" d="M29.07,199.07a9.25,9.25,0,0,1-1.19-4.92,10.07,10.07,0,0,1,5.52-8.35,9.18,9.18,0,0,1,5-.84,12,12,0,0,1,8.9,5.87,9.31,9.31,0,0,1,1.16,4.9,9.59,9.59,0,0,1-1.64,4.91,9.43,9.43,0,0,1-3.87,3.44,9.27,9.27,0,0,1-5,.86,12.1,12.1,0,0,1-8.89-5.87ZM39,200a6,6,0,0,0,4.19-6.34,4.94,4.94,0,0,0-5.77-3.81,6,6,0,0,0-4.19,6.34,4.63,4.63,0,0,0,2.11,3.09A4.54,4.54,0,0,0,39,200Z"/><path class="cls-1" d="M51.3,211.65a9.31,9.31,0,0,1-2.29-4.5,9.49,9.49,0,0,1,.46-5.16,9.59,9.59,0,0,1,3-4.25,9.26,9.26,0,0,1,4.65-2,11.27,11.27,0,0,1,5.44.66,11.13,11.13,0,0,1,4.58,3A9.79,9.79,0,0,1,66,213.31a9.19,9.19,0,0,1-4.63,2,11.07,11.07,0,0,1-5.42-.65A11.29,11.29,0,0,1,51.3,211.65Zm9.85-1.37a6,6,0,0,0,2.6-7.14A4.53,4.53,0,0,0,61,200.63a4.59,4.59,0,0,0-3.74.15,6,6,0,0,0-2.59,7.14,4.6,4.6,0,0,0,2.77,2.51A4.54,4.54,0,0,0,61.15,210.28Z"/><path class="cls-1" d="M81,212.83l-2.9,2.28-.54,4.77-5.43-.62,2.92-25.8,5.43.61-1.66,14.61,8.78-6.62,6.47.73-8.68,7.05,7.26,11.74-6.57-.74Z"/><path class="cls-1" d="M111.69,201.54a8.78,8.78,0,0,1,3.78,2.94,11.25,11.25,0,0,1,1.28,10.11,8.65,8.65,0,0,1-2.93,3.79,9.57,9.57,0,0,1-4.59,1.8,7.22,7.22,0,0,1-6.17-1.69l.27,2.16-5.17.65-3.27-25.76,5.42-.69,1.15,9.06a7.24,7.24,0,0,1,5.34-3A9.59,9.59,0,0,1,111.69,201.54ZM111,214a6,6,0,0,0-1-7.53,4.9,4.9,0,0,0-6.84.87,6,6,0,0,0,.95,7.53A4.92,4.92,0,0,0,111,214Z"/><path class="cls-1" d="M128,214.67a9.24,9.24,0,0,1-4.69-1.9,10,10,0,0,1-3.59-9.34,9.24,9.24,0,0,1,2.2-4.54,11.34,11.34,0,0,1,4.54-3.08,11.22,11.22,0,0,1,5.41-.75,9.28,9.28,0,0,1,4.67,1.89,10.11,10.11,0,0,1,3.6,9.35,9.24,9.24,0,0,1-2.19,4.53,11.3,11.3,0,0,1-4.52,3.08A11.42,11.42,0,0,1,128,214.67Zm6.53-7.51a6,6,0,0,0-2.73-7.09,4.94,4.94,0,0,0-6.46,2.49,5.23,5.23,0,0,0,.09,4,5.31,5.31,0,0,0,2.64,3.06,4.61,4.61,0,0,0,3.75.07A4.55,4.55,0,0,0,134.48,207.16Z"/><path class="cls-1" d="M151.1,203.87a9.23,9.23,0,0,1-5-.75,10.08,10.08,0,0,1-5.67-8.25,9.23,9.23,0,0,1,1.09-4.93,12.06,12.06,0,0,1,8.79-6,9.27,9.27,0,0,1,5,.76,9.6,9.6,0,0,1,3.93,3.37,9.48,9.48,0,0,1,1.74,4.88,9.3,9.3,0,0,1-1.08,4.93,12.07,12.07,0,0,1-8.78,6Zm4.6-8.81a6,6,0,0,0-4.3-6.26,4.55,4.55,0,0,0-3.64.78,4.63,4.63,0,0,0-2.06,3.13,5.28,5.28,0,0,0,1,3.91A5.22,5.22,0,0,0,150,199a4.58,4.58,0,0,0,3.66-.79A4.5,4.5,0,0,0,155.7,195.06Z"/><path class="cls-1" d="M169.35,180.39l.16,3.69,3.56,3.21-3.66,4.05-19.27-17.42,3.66-4,10.91,9.85-.26-11,4.37-4.83.66,11.17,13.78.95-4.44,4.9Z"/><path class="cls-1" d="M169.75,101.75a28.56,28.56,0,0,0-16.32,5.1V94.91H33.88v11.94a28.59,28.59,0,0,0-16.33-5.1,3,3,0,1,0,0,6,22.62,22.62,0,0,1,16.33,7v23.12A23.16,23.16,0,0,0,57,161h73.28a23.17,23.17,0,0,0,23.14-23.14V114.7a22.58,22.58,0,0,1,16.32-7,3,3,0,0,0,0-6Zm-23.52,36.07a16,16,0,0,1-15.94,16H57a16,16,0,0,1-15.94-16V102.1H146.23ZM132.29,68.61H96.1a5.65,5.65,0,0,1,5.42-4.08,5.14,5.14,0,0,1,.88.08,4.13,4.13,0,0,0-4.13-4.13H89a4.13,4.13,0,0,0-4.13,4.13,5.14,5.14,0,0,1,.88-.08,5.68,5.68,0,0,1,5.43,4.08H55A20.56,20.56,0,0,0,34.47,89.14v3H152.83v-3A20.56,20.56,0,0,0,132.29,68.61ZM40.78,86.15A14.56,14.56,0,0,1,55,74.6h77.28a14.56,14.56,0,0,1,14.23,11.55Z"/></g></g></svg>